<svg xmlns="http://www.w3.org/2000/svg" xmlns:xlink="http://www.w3.org/1999/xlink" viewBox="0 0 16 16"><defs><style>.cls-1{fill:#ededed;}.cls-2{fill:#ec2227;}.cls-3{fill:url(#linear-gradient);}.cls-4{fill:url(#linear-gradient-2);}.cls-5{fill:url(#linear-gradient-3);}.cls-6{fill:#f3f2f3;}.cls-7{fill:#f2f2f2;}</style><linearGradient id="linear-gradient" x1="1.55" y1="767.02" x2="14.45" y2="767.02" gradientTransform="matrix(1, 0, 0, -1, 0, 776.11)" gradientUnits="userSpaceOnUse"><stop offset="0" stop-color="#ec2227"/><stop offset="1" stop-color="#edb0b2"/></linearGradient><linearGradient id="linear-gradient-2" x1="10.22" y1="767.97" x2="11.42" y2="767.97" xlink:href="#linear-gradient"/><linearGradient id="linear-gradient-3" x1="11.51" y1="766.58" x2="12.71" y2="766.58" xlink:href="#linear-gradient"/></defs><title>favicon</title><g id="Layer_2" data-name="Layer 2"><g id="Layer_1-2" data-name="Layer 1"><rect class="cls-1" width="16" height="16"/><g id="Layer_1-2-2" data-name="Layer 1-2"><path class="cls-2" d="M4.28,6.67l-.5.5-2,2.06a2,2,0,0,0-.19.22l.72-3c.33-1.38.65-2.76,1-4.13.06-.24.11-.47.17-.71l.39,2.35C4,4.83,4.12,5.75,4.28,6.67Z"/><path class="cls-2" d="M14.45,9.8A2.67,2.67,0,0,0,14,9.23L12,7.17l-.2-.2c.05-.19.09-.38.14-.57.33-1.38.65-2.76,1-4.13l.17-.71.39,2.35.78,4.61Z"/><path class="cls-2" d="M11.35,8.37a.21.21,0,0,1,0,.31.2.2,0,0,1-.19.06c0-.15.07-.3.11-.46Z"/><path class="cls-2" d="M12.65,10.07a.21.21,0,0,1-.31,0l-.76-.77A.22.22,0,1,1,11.89,9h0l.76.77a.23.23,0,0,1,0,.31Z"/><path class="cls-3" d="M14.35,10.86a2.63,2.63,0,0,0-.66-1.12l-2-2.06-.35-.36-.06-.06L8,4,4.35,7.68l-2,2.06-.2.21h0l0,0,0,0a.35.35,0,0,0,0,.08l0,0-.06.09,0,.06,0,.06,0,0-.06.12,0,0s0,0,0,0l0,0a.88.88,0,0,0-.05.15l0,0h0a.24.24,0,0,0,0,.08.36.36,0,0,0,0,.1.06.06,0,0,0,0,0v0s0,.07,0,.1,0,.07,0,.1v.11h0v.1h0v.07a2.92,2.92,0,0,0,.05.5h0a.07.07,0,0,0,0,.05h0a2.59,2.59,0,0,0,3.08,2A2.54,2.54,0,0,0,6,13.43l2-2.06,2,2.06a2.56,2.56,0,0,0,3.65,0,2.59,2.59,0,0,0,.72-1.4,2.33,2.33,0,0,0,0-.37v-.15A3,3,0,0,0,14.35,10.86Zm-3-2.18a.2.2,0,0,1-.19.06A.17.17,0,0,1,11,8.68l-.76-.76a.22.22,0,0,1,0-.32.23.23,0,0,1,.31,0h0l.67.68.09.09a.21.21,0,0,1,0,.31Zm1.3,1.39a.21.21,0,0,1-.31,0l-.76-.77A.22.22,0,1,1,11.89,9h0l.76.77a.22.22,0,0,1,0,.31Z"/><path class="cls-4" d="M11.35,8.37a.22.22,0,0,1-.31.31l-.76-.76a.22.22,0,0,1,0-.32.23.23,0,0,1,.31,0h0l.67.68Z"/><path class="cls-5" d="M12.65,9.76a.22.22,0,0,1,0,.31.22.22,0,0,1-.3,0l-.76-.77A.22.22,0,1,1,11.89,9h0Z"/><path class="cls-6" d="M12.65,10.07a.21.21,0,0,1-.31,0l-.76-.77A.22.22,0,1,1,11.89,9h0l.76.77a.23.23,0,0,1,0,.31Z"/><path class="cls-7" d="M11.35,8.68a.2.2,0,0,1-.19.06A.17.17,0,0,1,11,8.68l-.76-.76a.22.22,0,0,1,0-.32.23.23,0,0,1,.31,0h0l.67.68.09.09a.21.21,0,0,1,0,.31Z"/></g></g></g></svg>