<svg xmlns="http://www.w3.org/2000/svg" viewBox="0 0 43.07 43.07"><defs><style>.cls-1{fill:none;stroke:#fff;stroke-linecap:round;stroke-miterlimit:10;stroke-width:2.07px;}.cls-2{fill:#fff;}</style></defs><title>        </title><g id="Layer_2" data-name="Layer 2"><g id="admin"><path class="cls-1" d="M22.41,1h8.5A11.13,11.13,0,0,1,42,12.16V30.91A11.14,11.14,0,0,1,30.91,42H12.16A11.13,11.13,0,0,1,1,30.91V12.16A11.12,11.12,0,0,1,12.16,1h3.05"/><polygon class="cls-2" points="20.89 23.2 10.81 32.18 8.97 30.34 17.91 20.23 20.89 23.2"/><path class="cls-2" d="M34.08,10.45l-.77.77a2.88,2.88,0,0,1-.46,3.49l-6.43,6.43L24.9,19.62l-1.78,1.79-3.2-3.2,11-11a2.26,2.26,0,0,1,3.2,3.2Z"/><rect class="cls-2" x="8.97" y="33" width="31.93" height="2.41"/></g></g></svg>