<svg xmlns="http://www.w3.org/2000/svg" viewBox="0 0 40.8 48.82"><defs><style>.cls-1,.cls-2,.cls-3{fill:none;}.cls-1,.cls-2,.cls-3,.cls-5,.cls-6,.cls-7{stroke:#f9f9fa;stroke-miterlimit:10;}.cls-1,.cls-5,.cls-6,.cls-7{stroke-linecap:round;}.cls-1,.cls-5{stroke-width:0.82px;}.cls-2,.cls-6{stroke-width:0.23px;}.cls-4,.cls-5,.cls-6,.cls-7{fill:#f9f9fa;}.cls-7{stroke-width:0.82px;}</style></defs><title> </title><g id="Layer_2" data-name="Layer 2"><g id="admin"><path class="cls-1" d="M.41.41H31.1a9.28,9.28,0,0,1,9.28,9.28V48.41a0,0,0,0,1,0,0H.41a0,0,0,0,1,0,0V.41A0,0,0,0,1,.41.41Z"/><path class="cls-2" d="M31.28.41h.95a2.86,2.86,0,0,1,2.85,2.85V7.6h5.3"/><circle class="cls-3" cx="11.71" cy="11.33" r="7.53"/><path class="cls-4" d="M11.38,16.24V15.09a3.34,3.34,0,0,1-1.74-.5l.27-.76a3.06,3.06,0,0,0,1.64.49,1.2,1.2,0,0,0,1.35-1.11c0-.63-.44-1-1.28-1.35-1.16-.46-1.88-1-1.88-2a1.86,1.86,0,0,1,1.72-1.82V6.92h.7V8a3,3,0,0,1,1.48.4l-.29.75a2.69,2.69,0,0,0-1.43-.39c-.87,0-1.2.52-1.2,1s.42.88,1.41,1.29c1.17.48,1.76,1.07,1.76,2.08a2,2,0,0,1-1.8,1.93v1.18Z"/><line class="cls-5" x1="26.94" y1="12.31" x2="35.83" y2="12.31"/><line class="cls-6" x1="22.85" y1="15.61" x2="36.19" y2="15.61"/><line class="cls-6" x1="22.65" y1="18.86" x2="35.83" y2="18.86"/><line class="cls-5" x1="5.45" y1="23.74" x2="9.9" y2="23.74"/><line class="cls-5" x1="13.57" y1="23.74" x2="27.92" y2="23.74"/><line class="cls-5" x1="32.97" y1="23.74" x2="36.19" y2="23.74"/><line class="cls-7" x1="5.45" y1="36.73" x2="10.1" y2="36.73"/><line class="cls-7" x1="13.57" y1="36.73" x2="27.92" y2="36.73"/><line class="cls-7" x1="32.97" y1="36.73" x2="36.19" y2="36.73"/><line class="cls-5" x1="5.45" y1="29.6" x2="10.1" y2="29.6"/><line class="cls-5" x1="13.57" y1="29.6" x2="27.92" y2="29.6"/><line class="cls-5" x1="32.97" y1="29.6" x2="36.19" y2="29.6"/><line class="cls-5" x1="28.51" y1="41.69" x2="36.19" y2="41.69"/><line class="cls-5" x1="21.79" y1="44.87" x2="36.19" y2="44.87"/></g></g></svg>