<svg xmlns="http://www.w3.org/2000/svg" viewBox="0 0 20.09 19.41"><defs><style>.cls-1{fill:none;stroke:#f3eed9;stroke-miterlimit:10;stroke-width:0.69px;}</style></defs><title>upload</title><g id="Layer_2" data-name="Layer 2"><g id="blog_layer" data-name="blog layer"><path class="cls-1" d="M13.31,3.32,10.54.55A.7.7,0,0,0,10.31.4a.7.7,0,0,0-.53,0,.66.66,0,0,0-.22.15L6.78,3.32a.69.69,0,1,0,1,1L9.35,2.71v9.42a.7.7,0,1,0,1.39,0V2.71L12.33,4.3a.67.67,0,0,0,.49.21.68.68,0,0,0,.49-.21A.69.69,0,0,0,13.31,3.32Z"/><path class="cls-1" d="M19.4,9.1,15.25,6.71a.77.77,0,0,0-.17-.07l-1.53-.89a2.1,2.1,0,0,1-1.42,0v6.36a2.08,2.08,0,1,1-4.16,0V5.77a2.1,2.1,0,0,1-1.42,0L5,6.64a.51.51,0,0,0-.17.07L.69,9.1a.72.72,0,0,0-.34.61V13.2a.69.69,0,0,0,.34.6l4.16,2.4.17.07L9.7,19a.73.73,0,0,0,.35.09.67.67,0,0,0,.34-.09l4.69-2.7.17-.07,4.15-2.4a.7.7,0,0,0,.35-.6V9.71A.73.73,0,0,0,19.4,9.1Z"/></g></g></svg>