<svg xmlns="http://www.w3.org/2000/svg" viewBox="0 0 15.7 15.7"><defs><style>.cls-1{fill:#ed2024;}.cls-2{fill:#f3eed9;}</style></defs><title>Asset 7</title><g id="Layer_2" data-name="Layer 2"><g id="Layer_1-2" data-name="Layer 1"><circle class="cls-1" cx="7.85" cy="7.85" r="7.85"/><path class="cls-2" d="M13.41,7.8,9.47,11.74A.7.7,0,0,1,9,12a.68.68,0,0,1-.49-.21.69.69,0,0,1,0-1l2.21-2.21H3a.7.7,0,0,1,0-1.4h7.8L8.58,4.94a.69.69,0,0,1,0-1,.71.71,0,0,1,1,0Z"/><path class="cls-2" d="M13,8.17a.63.63,0,0,1-.29.29Z"/></g></g></svg>