<svg xmlns="http://www.w3.org/2000/svg" viewBox="0 0 116.33 99"><defs><style>.cls-1{opacity:0.5;}.cls-2{fill:#f3eed9;}.cls-3{fill:none;stroke:#ee2434;stroke-linecap:round;stroke-miterlimit:10;stroke-width:2px;}</style></defs><title>delivery</title><g id="Layer_2" data-name="Layer 2"><g id="Layer_1-2" data-name="Layer 1"><g class="cls-1"><path class="cls-2" d="M48.58,90q0,9.06-8.92,9H8.79Q0,99,0,90V9.11Q0,0,9,0H39.66q8.93,0,8.92,9.11ZM34.1,86.28V12.72H14.55V86.28Z"/><path class="cls-2" d="M116.33,80.34h-7.52V99H94.7V80.34H62.18V71.55L86.79,0h15.06V.57L78.76,67.75H94.7V38h14.11V67.75h7.52Z"/></g><polyline class="cls-3" points="54.38 57.08 54.38 66.21 60.87 66.21"/><circle class="cls-3" cx="54.02" cy="66.21" r="23.29"/><circle class="cls-3" cx="54.17" cy="66.21" r="15.68"/><line class="cls-3" x1="28.6" y1="50.09" x2="37.21" y2="50.09"/><line class="cls-3" x1="17.81" y1="50.09" x2="24.4" y2="50.09"/><line class="cls-3" x1="21.99" y1="57.93" x2="32.25" y2="57.93"/><line class="cls-3" x1="11.84" y1="65.66" x2="30.74" y2="65.66"/><line class="cls-3" x1="21.99" y1="73.7" x2="31.88" y2="73.7"/><line class="cls-3" x1="28.68" y1="81.19" x2="36.19" y2="81.19"/><line class="cls-3" x1="17.81" y1="81.19" x2="24.2" y2="81.19"/><line class="cls-3" x1="45.1" y1="38.24" x2="45.1" y2="38.24"/><path class="cls-3" d="M45.92,44.37V13A3.53,3.53,0,0,1,49.45,9.5h50.64a4.4,4.4,0,0,1,4.4,4.4V65.18a4,4,0,0,1-4,4H77.11"/><path class="cls-3" d="M66.53,9.5V31a.92.92,0,0,0,1.56.65L73,26.73a1.79,1.79,0,0,1,2.53,0l5.21,5.21a1.17,1.17,0,0,0,2-.83V9.5"/></g></g></svg>