<svg xmlns="http://www.w3.org/2000/svg" viewBox="0 0 49.2 56.34"><defs><style>.cls-1{fill:none;stroke:#ee2434;stroke-miterlimit:10;}</style></defs><title>extinguisher</title><g id="Layer_2" data-name="Layer 2"><g id="Layer_1-2" data-name="Layer 1"><path class="cls-1" d="M21.92,18.35a7.14,7.14,0,1,1,7.14-7.14A7.14,7.14,0,0,1,21.92,18.35Z"/><path class="cls-1" d="M16.57,13H2.29a1.79,1.79,0,1,1,0-3.57H16.57a1.79,1.79,0,0,1,0,3.57Z"/><path class="cls-1" d="M41.56,29.06a1.79,1.79,0,0,1-1.79-1.78V21.92A8.93,8.93,0,0,0,30.85,13a1.79,1.79,0,1,1,0-3.57A12.5,12.5,0,0,1,43.34,21.92v5.36A1.78,1.78,0,0,1,41.56,29.06Z"/><path class="cls-1" d="M41.56,50.48a18.2,18.2,0,0,1-5.94-1,1.79,1.79,0,0,1-1.2-1.69c0-8.28,1.5-22.3,7.14-22.3s7.14,14,7.14,22.3a1.79,1.79,0,0,1-1.2,1.69A18.29,18.29,0,0,1,41.56,50.48Z"/><path class="cls-1" d="M30.85,13H27.28a1.79,1.79,0,1,1,0-3.57h3.57a1.79,1.79,0,0,1,0,3.57Z"/><path class="cls-1" d="M25.49,19.77v-3.2a1.79,1.79,0,0,0-1.78-1.79H20.14a1.79,1.79,0,0,0-1.79,1.79v3.2c-3.7,1.93-7.14,5.37-7.14,9.29V50.48a5.36,5.36,0,0,0,5.36,5.36H27.28a5.36,5.36,0,0,0,5.35-5.36V29.06C32.63,25.14,29.2,21.7,25.49,19.77ZM18.35,36.2a1.79,1.79,0,1,1-3.57,0V30.85a1.79,1.79,0,1,1,3.57,0Z"/><path class="cls-1" d="M14.75,3.28,7.38.63a2.5,2.5,0,0,0-3,1.28A2.58,2.58,0,0,0,4.93,5l6.63,3.55A10.76,10.76,0,0,1,14.75,3.28Z"/></g></g></svg>