<svg xmlns="http://www.w3.org/2000/svg" viewBox="0 0 17.01 17.01"><defs><style>.cls-1{fill:#ee2434;}</style></defs><title>Asset 16</title><g id="Layer_2" data-name="Layer 2"><g id="Layer_1-2" data-name="Layer 1"><path class="cls-1" d="M12.23,0H4.79A4.8,4.8,0,0,0,0,4.79v7.44A4.79,4.79,0,0,0,4.79,17H8.51V10.63H6.38a.53.53,0,0,1-.53-.53V8.51A.53.53,0,0,1,6.38,8H8.51V6.38c0-1.76.9-3.19,2.66-3.19h2.12a.53.53,0,0,1,.53.53v1.6a.53.53,0,0,1-.53.53h-2a.09.09,0,0,0-.1.1V8h2.65a.5.5,0,0,1,.44.23.55.55,0,0,1,.06.5L13.26,10.3a.55.55,0,0,1-.5.33H11.17V17h1.06A4.78,4.78,0,0,0,17,12.23V4.79A4.79,4.79,0,0,0,12.23,0Z"/></g></g></svg>