<svg xmlns="http://www.w3.org/2000/svg" viewBox="0 0 17 17"><defs><style>.cls-1{fill:#ee2434;}</style></defs><title>Asset 13</title><g id="Layer_2" data-name="Layer 2"><g id="Layer_1-2" data-name="Layer 1"><path class="cls-1" d="M12.22,0H4.78A4.78,4.78,0,0,0,0,4.78v7.44A4.78,4.78,0,0,0,4.78,17h7.44A4.78,4.78,0,0,0,17,12.22V4.78A4.78,4.78,0,0,0,12.22,0ZM6.38,13.28a.54.54,0,0,1-.54.53H3.72a.53.53,0,0,1-.53-.53V6.91a.53.53,0,0,1,.53-.53H5.84a.53.53,0,0,1,.54.53ZM4.78,5.84a1.59,1.59,0,1,1,1.6-1.59A1.59,1.59,0,0,1,4.78,5.84Zm9,7.44a.53.53,0,0,1-.53.53H11.69a.53.53,0,0,1-.53-.53V9.83a.8.8,0,1,0-1.6,0v3.45a.53.53,0,0,1-.53.53H7.44a.53.53,0,0,1-.53-.53V6.91a.52.52,0,0,1,.53-.53H9.56a.56.56,0,0,1,.38.15,3,3,0,0,1,1-.15A2.92,2.92,0,0,1,13.81,9.3Z"/></g></g></svg>