<svg xmlns="http://www.w3.org/2000/svg" xmlns:xlink="http://www.w3.org/1999/xlink" viewBox="0 0 169.83 43.08"><defs><style>.cls-1{fill:#ec2227;}.cls-2{fill:url(#linear-gradient);}.cls-3{fill:url(#linear-gradient-2);}.cls-4{fill:url(#linear-gradient-3);}.cls-5{fill:#f3f2f3;}.cls-6{fill:#f2f2f2;}.cls-7{font-size:15.04px;fill:#f8f7f8;font-family:Roboto-Black, Roboto;font-weight:800;}.cls-8{letter-spacing:-0.02em;}.cls-9{fill:#231f20;}.cls-10,.cls-11,.cls-12,.cls-13{fill:#ed1c2b;}.cls-11{letter-spacing:-0.01em;}.cls-12{letter-spacing:-0.01em;}.cls-13{letter-spacing:0em;}.cls-14{font-family:Roboto-MediumItalic, Roboto;font-weight:500;font-style:italic;}.cls-15{fill:#f0efef;letter-spacing:0em;}.cls-16,.cls-17{fill:none;}.cls-17{stroke:#231f20;stroke-miterlimit:10;stroke-width:1.01px;}.cls-18{fill:#ee1e53;}</style><linearGradient id="linear-gradient" y1="-4182.9" x2="42.29" y2="-4182.9" gradientTransform="matrix(1, 0, 0, -1, 0, -4158.22)" gradientUnits="userSpaceOnUse"><stop offset="0" stop-color="#ec2227"/><stop offset="1" stop-color="#edb0b2"/></linearGradient><linearGradient id="linear-gradient-2" x1="28.41" y1="-4179.79" x2="32.34" y2="-4179.79" xlink:href="#linear-gradient"/><linearGradient id="linear-gradient-3" x1="32.66" y1="-4184.33" x2="36.59" y2="-4184.33" xlink:href="#linear-gradient"/></defs><title>logowhite</title><g id="Layer_2" data-name="Layer 2"><g id="Layer_1-2" data-name="Layer 1"><g id="Layer_1-2-2" data-name="Layer 1-2"><path class="cls-1" d="M8.94,16.73,7.31,18.37.63,25.13a8.62,8.62,0,0,0-.63.71c.8-3.33,1.58-6.66,2.37-10L5.58,2.31c.18-.77.36-1.54.55-2.31.43,2.56.87,5.12,1.3,7.68C7.93,10.7,8.43,13.71,8.94,16.73Z"/><path class="cls-1" d="M42.29,27a8.35,8.35,0,0,0-1.41-1.87L34.2,18.37l-.66-.66L34,15.84,37.2,2.31,37.75,0,39,7.68q1.27,7.58,2.55,15.13Z"/><path class="cls-1" d="M32.13,22.31a.74.74,0,0,1,0,1,.73.73,0,0,1-.64.2L31.85,22Z"/><path class="cls-1" d="M36.38,27.89a.72.72,0,0,1-1,0l-2.49-2.52a.75.75,0,0,1,0-1,.72.72,0,0,1,1,0h0l2.49,2.52a.73.73,0,0,1,0,1Z"/><path class="cls-2" d="M42,30.49a8.43,8.43,0,0,0-.75-1.81,8.6,8.6,0,0,0-1.4-1.88L33.12,20,32,18.87l-.2-.19L21.14,7.93,9.17,20,2.48,26.8c-.22.23-.43.46-.63.71v0h0l-.09.11-.1.14L1.47,28a1.3,1.3,0,0,0-.1.15,2.29,2.29,0,0,0-.18.29l-.12.2c0,.07-.06.12-.09.18A.63.63,0,0,1,.91,29l-.17.38-.07.14-.06.14a.58.58,0,0,1,0,.14c-.06.16-.12.33-.17.49l0,.17a0,0,0,0,1,0,0,2.29,2.29,0,0,0-.07.28c0,.1-.05.21-.07.31l0,.14a.64.64,0,0,1,0,.09c0,.11,0,.22-.05.34s0,.22,0,.34,0,.11,0,.17,0,.11,0,.16v0c0,.11,0,.22,0,.33H0v.2a8.21,8.21,0,0,0,.16,1.64h0a1.42,1.42,0,0,0,0,.2h0a8.48,8.48,0,0,0,10.1,6.52,8.56,8.56,0,0,0,4.16-2.31l6.68-6.75,6.69,6.76a8.41,8.41,0,0,0,12,0,8.73,8.73,0,0,0,2.48-5.8v-.49A8.67,8.67,0,0,0,42,30.49Zm-9.83-7.15a.71.71,0,0,1-.64.2.74.74,0,0,1-.38-.2l-2.49-2.51a.74.74,0,0,1,0-1,.71.71,0,0,1,1,0h0L31.84,22l.28.28a.74.74,0,0,1,0,1Zm4.26,4.55a.72.72,0,0,1-1,0l-2.5-2.52a.74.74,0,0,1,0-1,.72.72,0,0,1,1,0h0l2.48,2.52a.73.73,0,0,1,0,1h0Z"/><path class="cls-3" d="M32.13,22.31a.74.74,0,0,1,0,1,.72.72,0,0,1-1,0l-2.49-2.51a.72.72,0,0,1,0-1,.7.7,0,0,1,1,0h0L31.84,22Z"/><path class="cls-4" d="M36.38,26.85a.75.75,0,0,1,0,1,.73.73,0,0,1-1,0l-2.49-2.52a.75.75,0,0,1,0-1,.72.72,0,0,1,1,0h0Z"/><path class="cls-5" d="M36.38,27.89a.72.72,0,0,1-1,0l-2.49-2.52a.75.75,0,0,1,0-1,.72.72,0,0,1,1,0h0l2.49,2.52a.73.73,0,0,1,0,1Z"/><path class="cls-6" d="M32.13,23.34a.73.73,0,0,1-.64.2.7.7,0,0,1-.38-.2l-2.49-2.51a.72.72,0,0,1,0-1,.7.7,0,0,1,1,0h0L31.84,22l.28.28a.74.74,0,0,1,0,1Z"/></g><text class="cls-7" transform="translate(52.73 16.09)"><tspan class="cls-8">W</tspan><tspan x="12.85" y="0">omen</tspan><tspan class="cls-9" x="50.92" y="0"> </tspan><tspan class="cls-10" x="54.67" y="0">L</tspan><tspan class="cls-11" x="62.82" y="0">o</tspan><tspan class="cls-12" x="71.16" y="0">v</tspan><tspan class="cls-13" x="78.83" y="0">e</tspan><tspan class="cls-9"><tspan x="0" y="18.05"> </tspan><tspan class="cls-14" x="3.75" y="18.05">and</tspan><tspan x="28.21" y="18.05"> </tspan><tspan class="cls-15" x="31.96" y="18.05">Relationship</tspan></tspan></text><line class="cls-16" x1="58.8" y1="41.42" x2="59.09" y2="40.22"/><line class="cls-17" x1="57.03" y1="40.82" x2="154.22" y2="40.82"/><circle class="cls-18" cx="155.03" cy="40.82" r="2.26"/></g></g></svg>