<svg xmlns="http://www.w3.org/2000/svg" viewBox="0 0 43.29 35.7"><defs><style>.cls-1{fill:none;stroke:#f0efef;stroke-miterlimit:10;}</style></defs><title>love</title><g id="Layer_2" data-name="Layer 2"><g id="Layer_1-2" data-name="Layer 1"><polygon class="cls-1" points="40.24 16.19 33.62 22.88 21.64 34.99 11.02 24.24 10.82 24.05 9.67 22.88 7.87 21.06 8.77 21.06 15.86 13.98 23.55 21.67 29.02 16.19 40.24 16.19"/><path class="cls-1" d="M42.79,9.07v.2c0,.11,0,.22,0,.33v0a.86.86,0,0,0,0,.16,1.11,1.11,0,0,0,0,.17c0,.12,0,.23,0,.34a3.43,3.43,0,0,1-.06.34s0,0,0,.09l0,.14c0,.1-.05.21-.07.31s-.05.19-.07.28a0,0,0,0,0,0,0l-.05.17c0,.16-.11.32-.17.49l-.06.14-.06.14-.06.14c0,.12-.11.25-.18.38l-.06.12-.1.18a2,2,0,0,1-.11.2l-.18.29-.1.15-.17.25,0,.06H28.61l-5.06,5.07-7.69-7.7-7.5,7.5H6.88L3,15.12a8.64,8.64,0,0,1-1.41-1.88,7.92,7.92,0,0,1-.74-1.81A8.67,8.67,0,0,1,.5,9.29V8.8A8.54,8.54,0,0,1,.62,7.57,8.66,8.66,0,0,1,3,3,8.41,8.41,0,0,1,15,3l6.68,6.76,6.63-6.69a8.26,8.26,0,0,1,2.09-1.59,8.67,8.67,0,0,1,4-1,8.5,8.5,0,0,1,8.27,6.72c0,.07,0,.13,0,.2A9,9,0,0,1,42.79,9.07Z"/></g></g></svg>