<svg xmlns="http://www.w3.org/2000/svg" viewBox="0 0 27.42 27.41"><defs><style>.cls-1{fill:#f3eed9;}</style></defs><title>Asset 18</title><g id="Layer_2" data-name="Layer 2"><g id="Layer_1-2" data-name="Layer 1"><path class="cls-1" d="M24.88,16.07c-3-3-6.51-3.37-9-.84h0a7.06,7.06,0,0,0-.81,1,38.26,38.26,0,0,1-3.82-3.82,7.77,7.77,0,0,0,1-.82c2.52-2.52,2.2-6-.85-9s-6.5-3.37-9-.84a8.73,8.73,0,0,0-1,10.57A52.46,52.46,0,0,0,15.16,26.07a8.29,8.29,0,0,0,4.63,1.34,8.44,8.44,0,0,0,5.94-2.31C28.25,22.58,27.93,19.12,24.88,16.07Z"/></g></g></svg>