<svg xmlns="http://www.w3.org/2000/svg" viewBox="0 0 43 55.55"><defs><style>.cls-1{fill:#fff;}.cls-2,.cls-3{fill:none;stroke:#fff;stroke-linecap:round;stroke-miterlimit:10;}.cls-2{stroke-width:2px;}</style></defs><title>Asset 44</title><g id="Layer_2" data-name="Layer 2"><g id="admin"><path class="cls-1" d="M42.12,11.45a.87.87,0,0,0,.57-1.53L41.26,8.69,33.18,1.74,31.4.21A.89.89,0,0,0,30.83,0H8.13V45.49H43v-34ZM31.7,2.76l8.08,7H31.7Zm9.56,41H9.87v-42H30v9.71h11.3Z"/><polyline class="cls-2" points="34.13 48.98 34.13 54.55 1 54.55 1 10.79 4.75 10.79"/><line class="cls-3" x1="13.73" y1="17.79" x2="31.7" y2="17.79"/><line class="cls-3" x1="13.73" y1="22.75" x2="30.06" y2="22.75"/><line class="cls-3" x1="13.73" y1="29.31" x2="28.01" y2="29.31"/></g></g></svg>