<svg xmlns="http://www.w3.org/2000/svg" viewBox="0 0 22.75 22.74"><defs><style>.cls-1{fill:#cccccb;}.cls-2{fill:#fff;}</style></defs><title>Profile</title><g id="Layer_2" data-name="Layer 2"><g id="blog_layer" data-name="blog layer"><path class="cls-1" d="M22.75,11.37A11.35,11.35,0,0,1,19,19.81a8.55,8.55,0,0,0-5.53-4.43,5.77,5.77,0,1,0-4.2,0,8.54,8.54,0,0,0-5.52,4.44,11.38,11.38,0,1,1,19-8.45Z"/><path class="cls-2" d="M19,19.81a11.4,11.4,0,0,1-15.25,0,8.54,8.54,0,0,1,5.52-4.44,5.78,5.78,0,1,1,4.2,0A8.55,8.55,0,0,1,19,19.81Z"/></g></g></svg>