<svg xmlns="http://www.w3.org/2000/svg" viewBox="0 0 83.82 99"><defs><style>.cls-1{opacity:0.5;}.cls-2{fill:#f3eed9;}.cls-3,.cls-4,.cls-5{fill:none;stroke:#ee2434;stroke-miterlimit:10;}.cls-3,.cls-5{stroke-width:2px;}.cls-4,.cls-5{stroke-linecap:round;}.cls-4{stroke-width:1.41px;}</style></defs><title>Asset 4</title><g id="Layer_2" data-name="Layer 2"><g id="Layer_1-2" data-name="Layer 1"><g class="cls-1"><path class="cls-2" d="M48.58,90q0,9.06-8.92,9H8.79Q0,99,0,90V9.11Q0,0,9,0H39.66q8.93,0,8.92,9.11ZM34.1,86.29V12.71H14.55V86.29Z"/><path class="cls-2" d="M83.82,99H69.27V29.16H63.58v-2L71.23,0H83.82Z"/></g><path class="cls-3" d="M26.61,31.38S25.74,17.19,32,13.12a.86.86,0,0,1,1,.09c.51.44,1.57.86,3.34-.45,0,0,7-7.15,17.18-.27a.66.66,0,0,1,.28.67,1.64,1.64,0,0,0,1.57,2.14.54.54,0,0,1,.3.13c1,.89,7.61,7,5.46,13.16l-1.67,2.79a42,42,0,0,0-4.4-4.95.86.86,0,0,0-.87-.19c-1.59.47-7.22,1.68-13.57-2.74a.78.78,0,0,0-.78-.07c-1.14.52-4.49,1.87-7.6,1.31a.55.55,0,0,0-.62.42C31.35,26.75,30.11,31.35,26.61,31.38Z"/><path class="cls-3" d="M26.61,31.38h-.39a2.14,2.14,0,0,0-2.14,2.14V40.1a3,3,0,0,0,3,3h2.29s-.18,6.76,5.71,10.27a15.52,15.52,0,0,0,7,2s12.63,1.53,16.19-12.19a.9.9,0,0,1,.87-.67H60.5a1.31,1.31,0,0,0,1.3-1.08l1-5.43a2.82,2.82,0,0,0-2.32-3.28.86.86,0,0,1-.65-.5l-.31-.74"/><line class="cls-4" x1="28.23" y1="86.46" x2="54.08" y2="86.46"/><path class="cls-5" d="M34.77,53.17v6.29l-3.86,1L18.37,63.94a11.1,11.1,0,0,0-8.17,10.7V86.89H21"/><path class="cls-5" d="M30.91,60.51S36.07,72,47.5,68.39"/><circle class="cls-3" cx="62.69" cy="65.64" r="6.02"/><path class="cls-3" d="M63.45,54.47l2,1.44a1.27,1.27,0,0,0,.75.25h2.46a1.29,1.29,0,0,1,1.22.89l.76,2.33a1.25,1.25,0,0,0,.47.64l2,1.45a1.29,1.29,0,0,1,.47,1.44l-.76,2.33a1.36,1.36,0,0,0,0,.8l.76,2.33a1.3,1.3,0,0,1-.47,1.44l-2,1.44a1.28,1.28,0,0,0-.47.65l-.76,2.33a1.29,1.29,0,0,1-1.22.89H66.19a1.27,1.27,0,0,0-.75.25l-2,1.44a1.28,1.28,0,0,1-1.51,0l-2-1.44a1.28,1.28,0,0,0-.76-.25H56.74a1.3,1.3,0,0,1-1.23-.89l-.75-2.33a1.34,1.34,0,0,0-.47-.65l-2-1.44a1.28,1.28,0,0,1-.46-1.44L52.59,66a1.22,1.22,0,0,0,0-.8l-.75-2.33a1.27,1.27,0,0,1,.46-1.44l2-1.45a1.31,1.31,0,0,0,.47-.64l.75-2.33a1.3,1.3,0,0,1,1.23-.89h2.45a1.28,1.28,0,0,0,.76-.25l2-1.44A1.28,1.28,0,0,1,63.45,54.47Z"/><path class="cls-5" d="M58.11,83.25v5.61a.63.63,0,0,0,1.08.45l2.7-2.69A1.52,1.52,0,0,1,64,86.54l3.15,2.7a.89.89,0,0,0,1.48-.67V74.91"/><line class="cls-5" x1="58.11" y1="75.12" x2="58.11" y2="79.63"/></g></g></svg>