<svg xmlns="http://www.w3.org/2000/svg" viewBox="0 0 27.27 41.88"><defs><style>.cls-1{fill:none;stroke:#fffeff;stroke-miterlimit:10;stroke-width:0.6px;}</style></defs><title>question</title><g id="Layer_2" data-name="Layer 2"><g id="Layer_1-2" data-name="Layer 1"><path class="cls-1" d="M6.57,14.45a.43.43,0,0,1-.13.09,1,1,0,0,1-.46.07l-4.81-.07a.7.7,0,0,1-.49-.13A.66.66,0,0,1,.51,14a10.52,10.52,0,0,1,5-11A17.38,17.38,0,0,1,11.18.65,16.58,16.58,0,0,1,17.34.53l.82.17a11.83,11.83,0,0,1,5.93,3.18A10.73,10.73,0,0,1,26.72,9.1,11.37,11.37,0,0,1,24.21,19c-1.8,1.94-4.34,3.11-6,5.19a8.34,8.34,0,0,0-1.67,6.34H10.73c-.1-2.69-.1-5.53,1.27-7.84,2-3.44,6.67-4.92,8.15-8.63a6.57,6.57,0,0,0-2.09-7.43,7.05,7.05,0,0,0-7.79-.36,7.62,7.62,0,0,0-3.48,7.05A1.38,1.38,0,0,1,6.57,14.45Z"/><rect class="cls-1" x="9.91" y="35.1" width="6.96" height="6.48" rx="2"/></g></g></svg>