<svg xmlns="http://www.w3.org/2000/svg" viewBox="0 0 26.8 21.44"><defs><style>.cls-1{fill:#2f4858;}</style></defs><title>quote</title><g id="Layer_2" data-name="Layer 2"><g id="Layer_1-2" data-name="Layer 1"><path class="cls-1" d="M9.44,0A3,3,0,0,1,11.2.54,1.54,1.54,0,0,1,12,1.74a1.52,1.52,0,0,1-.51,1A16.84,16.84,0,0,0,9,5.64,4.76,4.76,0,0,0,8.3,8.05a2,2,0,0,0,.9,1.58,9.31,9.31,0,0,1,2.47,2.61,6,6,0,0,1,.71,3,6.17,6.17,0,0,1-1.71,4.45,5.73,5.73,0,0,1-4.3,1.78,5.85,5.85,0,0,1-4.74-2.26A7.31,7.31,0,0,1,0,14.42Q0,7.87,6.34,1.58A4.57,4.57,0,0,1,9.44,0ZM23.86,0a3,3,0,0,1,1.76.54,1.54,1.54,0,0,1,.77,1.2,1.49,1.49,0,0,1-.54,1,17.33,17.33,0,0,0-2.44,2.95,4.76,4.76,0,0,0-.69,2.41,2,2,0,0,0,.9,1.58,9.31,9.31,0,0,1,2.47,2.61,6,6,0,0,1,.71,3,6.17,6.17,0,0,1-1.71,4.45,5.73,5.73,0,0,1-4.3,1.78,5.85,5.85,0,0,1-4.74-2.26,7.31,7.31,0,0,1-1.63-4.76q0-6.55,6.34-12.84A4.57,4.57,0,0,1,23.86,0Z"/></g></g></svg>