<svg xmlns="http://www.w3.org/2000/svg" viewBox="0 0 32.52 41.09"><defs><style>.cls-1{fill:#2f4858;}.cls-2{fill:#f4f1db;}</style></defs><title>Asset 46</title><g id="Layer_2" data-name="Layer 2"><g id="admin"><path class="cls-1" d="M30,3.15H24.18a3.07,3.07,0,0,1,.1.74V5.52A3,3,0,0,1,23.87,7a3.48,3.48,0,0,1-3,1.66H11.49A3.46,3.46,0,0,1,8.49,7a3,3,0,0,1-.41-1.5V3.89a2.64,2.64,0,0,1,.1-.74H2.55A2.55,2.55,0,0,0,0,5.7V38.54a2.55,2.55,0,0,0,2.55,2.55H30.29a2.23,2.23,0,0,0,2.23-2.24V5.7A2.55,2.55,0,0,0,30,3.15ZM28.65,35a2.23,2.23,0,0,1-2.23,2.24h-20a2.56,2.56,0,0,1-2.55-2.55V13.27a2.55,2.55,0,0,1,2.55-2.55H26.1a2.55,2.55,0,0,1,2.55,2.55Z"/><path class="cls-1" d="M22.48,3.9V5.52a1.51,1.51,0,0,1-.25.84A1.61,1.61,0,0,1,20.88,7H11.26a1.59,1.59,0,0,1-1.19-.49,1.52,1.52,0,0,1-.4-1V3.9a1.51,1.51,0,0,1,.2-.74A1.76,1.76,0,0,1,11.4,2.3h.95a1.67,1.67,0,0,0,1.53-.9A2.41,2.41,0,0,1,16.08,0a2.43,2.43,0,0,1,2.21,1.4,1.67,1.67,0,0,0,1.52.9h1a1.76,1.76,0,0,1,1.53.86A1.51,1.51,0,0,1,22.48,3.9Z"/><circle class="cls-2" cx="16.08" cy="2.01" r="0.93"/><path class="cls-1" d="M25,15.17H6.47a1,1,0,1,1,0-1.93H25a1,1,0,1,1,0,1.93Z"/><path class="cls-1" d="M25.36,21.37H6.47a1,1,0,1,1,0-1.94H25.36a1,1,0,0,1,0,1.94Z"/><path class="cls-1" d="M21.74,26.82H6.22a1,1,0,1,1,0-1.93H21.74a1,1,0,1,1,0,1.93Z"/><path class="cls-1" d="M20.14,32.21H6.22a1,1,0,1,1,0-1.94H20.14a1,1,0,0,1,0,1.94Z"/></g></g></svg>