<svg xmlns="http://www.w3.org/2000/svg" viewBox="0 0 113.99 99"><defs><style>.cls-1{opacity:0.5;}.cls-2{fill:#f3eed9;}.cls-3{fill:none;stroke:#ee2434;stroke-linecap:round;stroke-miterlimit:10;stroke-width:2px;}</style></defs><title>satisfaction</title><g id="Layer_2" data-name="Layer 2"><g id="Layer_1-2" data-name="Layer 1"><g class="cls-1"><path class="cls-2" d="M48.58,90q0,9.06-8.92,9H8.79Q0,99,0,90V9.11Q0,0,9,0H39.66q8.93,0,8.92,9.11ZM34.1,86.29V12.71H14.55V86.29Z"/><path class="cls-2" d="M114,90q0,9.06-8.92,9H74.71q-8.79,0-8.79-9V67.12H80.47V86.29h19V61.42L81.35,49v-3.1L99.51,33.59V12.71h-19v18H65.92V9.11q0-9.1,9-9.11h30.17Q114,0,114,9.11V32.39a10.27,10.27,0,0,1-4.93,9.11l-9.17,5.94,9.3,5.82a9.82,9.82,0,0,1,4.8,8.92Z"/></g><polyline class="cls-3" points="23.83 74.22 16.84 69.15 9.86 74.22 12.53 66.01 5.54 60.94 14.18 60.94"/><polyline class="cls-3" points="16.84 52.72 19.51 60.94 28.15 60.94 21.16 66.01"/><polyline class="cls-3" points="22.79 71.03 23.83 74.22 16.84 69.15 9.86 74.22 12.53 66.01 5.54 60.94 14.18 60.94 15.14 57.98"/><polyline class="cls-3" points="15.82 55.86 16.84 52.72 19.51 60.94 28.15 60.94 21.16 66.01 22 68.61"/><polyline class="cls-3" points="28.43 82.33 31.55 72.74 23.39 66.81 33.47 66.81 36.59 57.22 39.7 66.81"/><polyline class="cls-3" points="49.79 66.81 41.63 72.74 44.75 82.33 36.59 76.4"/><polyline class="cls-3" points="31.19 80.32 28.43 82.33 31.55 72.74 23.39 66.81 33.47 66.81 36.59 57.22 39.7 66.81 42.46 66.81"/><polyline class="cls-3" points="44.95 66.81 49.79 66.81 41.63 72.74 44.75 82.33 36.59 76.4 33.08 78.95"/><polyline class="cls-3" points="49.32 82.83 50.28 79.89 41.49 73.51 52.35 73.51 55.71 63.18 57.27 68"/><polyline class="cls-3" points="58.4 71.46 59.06 73.51 69.93 73.51 61.14 79.89 64.5 90.22 55.71 83.84 46.92 90.22 47.96 87.02"/><polyline class="cls-3" points="83.93 71.33 81.53 73.08 84.88 83.41 76.09 77.03 72.7 79.49"/><polyline class="cls-3" points="70.76 80.9 67.31 83.41 70.66 73.08 61.87 66.69 72.74 66.69 76.09 56.36 79.45 66.69 90.31 66.69 85.48 70.21"/><polyline class="cls-3" points="95.08 53.63 95.86 51.24 98.82 60.35 108.41 60.35 100.65 65.99 103.62 75.11 95.86 69.47 88.1 75.11 91.07 65.99 83.31 60.35 85.98 60.35"/><polyline class="cls-3" points="87.62 60.35 92.9 60.35 94.19 56.36"/><path class="cls-3" d="M4.76,48.06V42.83a9,9,0,0,1,9-9H16a6.31,6.31,0,0,1,3.18.85l1.05.6a2,2,0,0,0,1.94,0l1.1-.58a7.68,7.68,0,0,1,3.6-.9H29.9a6.68,6.68,0,0,1,6.69,6.69v.44"/><line class="cls-3" x1="11.42" y1="40.93" x2="11.42" y2="48.82"/><line class="cls-3" x1="31.35" y1="40.93" x2="31.35" y2="49.07"/><path class="cls-3" d="M39.33,52.72V45.3a8.92,8.92,0,0,1,8.92-8.92h1.51a6.71,6.71,0,0,1,3.51,1l1,.6a4.13,4.13,0,0,0,4.48-.08l.35-.23a7.57,7.57,0,0,1,4.22-1.29h2a7.84,7.84,0,0,1,7.83,7.83v8.51"/><path class="cls-3" d="M75.41,41.15a8.91,8.91,0,0,1,8.92-8.91h1.51a6.7,6.7,0,0,1,3.51,1l1,.61a4.11,4.11,0,0,0,4.47-.09l.35-.23a7.56,7.56,0,0,1,4.22-1.28h2a7.83,7.83,0,0,1,7.83,7.82v8.52"/><line class="cls-3" x1="46.36" y1="52.16" x2="46.36" y2="54.13"/><line class="cls-3" x1="46.36" y1="45.38" x2="46.36" y2="49.5"/><line class="cls-3" x1="66.44" y1="45.76" x2="66.44" y2="52.72"/><line class="cls-3" x1="80.95" y1="44.78" x2="80.95" y2="48.58"/><line class="cls-3" x1="80.95" y1="41.56" x2="80.95" y2="43.64"/><line class="cls-3" x1="100.91" y1="41.29" x2="100.91" y2="48.58"/><path class="cls-3" d="M12.22,22.29a10.11,10.11,0,1,1,.62,1.36"/><path class="cls-3" d="M62.36,14.7A10.06,10.06,0,1,1,46.71,26.2"/><path class="cls-3" d="M46.26,24.71A10.07,10.07,0,0,1,61,13.79"/><path class="cls-3" d="M85.55,10.1a10.12,10.12,0,1,1-2.23,1.6"/></g></g></svg>