<svg xmlns="http://www.w3.org/2000/svg" viewBox="0 0 112.41 99"><defs><style>.cls-1{opacity:0.5;}.cls-2{fill:#f3eed9;}.cls-3{fill:none;stroke:#ee2434;stroke-linecap:round;stroke-miterlimit:10;stroke-width:2px;}</style></defs><title>serviceing</title><g id="Layer_2" data-name="Layer 2"><g id="Layer_1-2" data-name="Layer 1"><g class="cls-1"><path class="cls-2" d="M48.58,90q0,9-8.92,9H8.79Q0,99,0,90V9.11Q0,0,9,0H39.66q8.93,0,8.92,9.11ZM34.1,86.28V12.72H14.55V86.28Z"/><path class="cls-2" d="M112.41,28.15q0,4.68-3.22,10.38L82,86h30.3V99h-48V89.83l33.53-59V12.59h-18V31H65.28V9q0-9,9-9h29q9,0,9,9Z"/></g><path class="cls-3" d="M77.94,26.2,83,31.27l9.69-9.69s6.69,30.88-21.86,21.27l-2.9,2.89"/><path class="cls-3" d="M79,27.24l-5.06-5.07,9.68-9.69S52.7,5.8,62.31,34.35l-2.9,2.89"/><path class="cls-3" d="M79.78,60.14l-7.29-7.3a1.9,1.9,0,0,0-1.35-.56H67.92a1.69,1.69,0,0,1-1.22-.51l-2.14-2.13a2.35,2.35,0,0,1,0-3.33h0a.77.77,0,0,0,0-1.09l-4-4L48.25,53.59l3.25,3.25a1.34,1.34,0,0,0,1.84.06h0a1.35,1.35,0,0,1,1.84.05l0,.06,2.7,2.7a1.55,1.55,0,0,1,.46,1.09v3.92a2.51,2.51,0,0,0,.73,1.77L79.33,86.7a9.56,9.56,0,0,0,13.33.18h0a9.56,9.56,0,0,0,.18-13.69l-10.9-10.9"/><line class="cls-3" x1="66.21" y1="59.16" x2="85.4" y2="78.35"/><polygon class="cls-3" points="34.24 64.54 25.96 66.69 23.68 74.93 29.68 81.03 37.96 78.88 40.24 70.64 34.24 64.54"/><path class="cls-3" d="M19.17,81a15.15,15.15,0,1,1,3.55,3.87"/><line class="cls-3" x1="36.08" y1="58.17" x2="44.87" y2="49.38"/><line class="cls-3" x1="46.6" y1="68.76" x2="53.56" y2="61.8"/><polyline class="cls-3" points="38.1 26.59 33.1 21.58 33.1 16.44 21.19 9.5 16.77 13.92 23.72 25.58 28.92 25.58 52.59 49.25 52.16 49.68"/><line class="cls-3" x1="56.68" y1="45.16" x2="41.11" y2="29.59"/></g></g></svg>