<svg xmlns="http://www.w3.org/2000/svg" xmlns:xlink="http://www.w3.org/1999/xlink" viewBox="0 0 105.35 26.73"><defs><style>.cls-1{fill:#ec2227;}.cls-2{fill:url(#linear-gradient);}.cls-3{fill:url(#linear-gradient-2);}.cls-4{fill:url(#linear-gradient-3);}.cls-5{fill:#f3f2f3;}.cls-6{fill:#f2f2f2;}.cls-7{font-size:9.33px;fill:#231f20;font-family:Roboto-Black, Roboto;font-weight:800;}.cls-8{letter-spacing:-0.02em;}.cls-10,.cls-11,.cls-9{fill:#ed1c2b;}.cls-10{letter-spacing:-0.01em;}.cls-11{letter-spacing:-0.01em;}.cls-12{font-family:Roboto-MediumItalic, Roboto;font-weight:500;font-style:italic;letter-spacing:0em;}.cls-13{letter-spacing:0em;}.cls-14,.cls-15{fill:none;}.cls-15{stroke:#231f20;stroke-miterlimit:10;stroke-width:0.63px;}.cls-16{fill:#ee1e53;}</style><linearGradient id="linear-gradient" y1="597.86" x2="26.23" y2="597.86" gradientTransform="matrix(1, 0, 0, -1, 0, 613.17)" gradientUnits="userSpaceOnUse"><stop offset="0" stop-color="#ec2227"/><stop offset="1" stop-color="#edb0b2"/></linearGradient><linearGradient id="linear-gradient-2" x1="17.62" y1="599.79" x2="20.06" y2="599.79" xlink:href="#linear-gradient"/><linearGradient id="linear-gradient-3" x1="20.26" y1="596.97" x2="22.7" y2="596.97" xlink:href="#linear-gradient"/></defs><title>testlogo</title><g id="Layer_2" data-name="Layer 2"><g id="Layer_1-2" data-name="Layer 1"><g id="Layer_1-2-2" data-name="Layer 1-2"><path class="cls-1" d="M5.55,10.38l-1,1L.39,15.59A5.34,5.34,0,0,0,0,16C.5,14,1,11.9,1.47,9.83c.66-2.8,1.33-5.6,2-8.4C3.57,1,3.69.47,3.8,0l.81,4.77Q5.07,7.57,5.55,10.38Z"/><path class="cls-1" d="M26.23,16.76a5.24,5.24,0,0,0-.87-1.17L21.21,11.4l-.4-.41.27-1.16c.67-2.8,1.33-5.6,2-8.4L23.42,0c.26,1.59.53,3.18.8,4.77.53,3.13,1.05,6.26,1.58,9.38Z"/><path class="cls-1" d="M19.93,13.84a.47.47,0,0,1,0,.64.44.44,0,0,1-.4.12c.08-.31.15-.62.23-.94Z"/><path class="cls-1" d="M22.57,17.3a.45.45,0,0,1-.63,0l-1.55-1.56a.47.47,0,0,1,0-.64.43.43,0,0,1,.63,0h0l1.54,1.56a.46.46,0,0,1,0,.64Z"/><path class="cls-2" d="M26,18.92a5.58,5.58,0,0,0-.46-1.13,5,5,0,0,0-.88-1.16l-4.14-4.2-.72-.72-.12-.12L13.12,4.92,5.69,12.43l-4.15,4.2a4.09,4.09,0,0,0-.39.44h0l-.06.07L1,17.24l-.11.15-.06.1a1.74,1.74,0,0,0-.11.18.75.75,0,0,0-.07.12.6.6,0,0,0-.06.11.59.59,0,0,0,0,.08l-.11.23,0,.09,0,.09,0,.09c0,.1-.08.2-.11.3l0,.1v0a1.21,1.21,0,0,0,0,.18c0,.06,0,.12,0,.19a.24.24,0,0,0,0,.09.11.11,0,0,0,0,.05c0,.07,0,.14,0,.21s0,.14,0,.21,0,.07,0,.11S0,20,0,20H0c0,.07,0,.13,0,.2H0v.13a5,5,0,0,0,.1,1h0s0,.08,0,.12h0A5.24,5.24,0,0,0,9,24.13l4.15-4.19,4.14,4.2a5.21,5.21,0,0,0,7.43,0,5.31,5.31,0,0,0,1.47-2.83,6.68,6.68,0,0,0,.07-.77v-.3A5.34,5.34,0,0,0,26,18.92Zm-6.1-4.44a.43.43,0,0,1-.39.12.42.42,0,0,1-.24-.12l-1.55-1.56a.47.47,0,0,1,0-.64.45.45,0,0,1,.64,0h0l1.36,1.38.18.18a.47.47,0,0,1,0,.64Zm2.64,2.82a.45.45,0,0,1-.63,0l-1.55-1.56a.47.47,0,0,1,0-.64.45.45,0,0,1,.64,0h0l1.54,1.56a.47.47,0,0,1,0,.64Z"/><path class="cls-3" d="M19.93,13.84a.47.47,0,0,1,0,.64.43.43,0,0,1-.63,0l-1.55-1.56a.47.47,0,0,1,0-.64.43.43,0,0,1,.63,0h0l1.37,1.38Z"/><path class="cls-4" d="M22.57,16.66a.46.46,0,0,1,0,.64.45.45,0,0,1-.61,0l-1.55-1.56a.47.47,0,0,1,0-.64.43.43,0,0,1,.63,0h0Z"/><path class="cls-5" d="M22.57,17.3a.45.45,0,0,1-.63,0l-1.55-1.56a.47.47,0,0,1,0-.64.43.43,0,0,1,.63,0h0l1.54,1.56a.46.46,0,0,1,0,.64Z"/><path class="cls-6" d="M19.93,14.48a.44.44,0,0,1-.4.12.4.4,0,0,1-.23-.12l-1.55-1.56a.47.47,0,0,1,0-.64.43.43,0,0,1,.63,0h0l1.37,1.38.18.18a.47.47,0,0,1,0,.64Z"/></g><text class="cls-7" transform="translate(32.71 9.98)"><tspan class="cls-8">W</tspan><tspan x="7.97" y="0">omen </tspan><tspan class="cls-9" x="33.91" y="0">L</tspan><tspan class="cls-10" x="38.97" y="0">o</tspan><tspan class="cls-11" x="44.14" y="0">v</tspan><tspan class="cls-9" x="48.9" y="0">e</tspan><tspan x="0" y="11.2"> </tspan><tspan class="cls-12" x="2.32" y="11.2">and</tspan><tspan class="cls-13" x="17.5" y="11.2" xml:space="preserve"> Relationship</tspan></text><line class="cls-14" x1="36.47" y1="25.7" x2="36.66" y2="24.95"/><line class="cls-15" x1="35.38" y1="25.32" x2="95.67" y2="25.32"/><circle class="cls-16" cx="96.17" cy="25.32" r="1.4"/></g></g></svg>