<svg xmlns="http://www.w3.org/2000/svg" viewBox="0 0 17 14.7"><defs><style>.cls-1{fill:#ee2434;}</style></defs><title>Asset 14</title><g id="Layer_2" data-name="Layer 2"><g id="Layer_1-2" data-name="Layer 1"><path class="cls-1" d="M5.54,14.7a9.59,9.59,0,0,1-5.3-1.6A.52.52,0,0,1,0,12.48a.54.54,0,0,1,.56-.35A5.75,5.75,0,0,0,4,11.52,3.82,3.82,0,0,1,1.81,9.1a.53.53,0,0,1,.11-.51L2,8.54A3.91,3.91,0,0,1,.64,5.6.56.56,0,0,1,.9,5.12.63.63,0,0,1,1.13,5a4,4,0,0,1,.05-3.81A.51.51,0,0,1,1.6,1a.53.53,0,0,1,.46.19A8.73,8.73,0,0,0,6.89,4.25a4.25,4.25,0,0,1,7.33-2.93A6.89,6.89,0,0,0,15.66.61a.54.54,0,0,1,.64.06.53.53,0,0,1,.11.63l-.79,1.58,1,.34a.56.56,0,0,1,.36.45.52.52,0,0,1-.26.51L15.37,5A9.88,9.88,0,0,1,5.54,14.7Z"/></g></g></svg>