<svg xmlns="http://www.w3.org/2000/svg" viewBox="0 0 17.59 15.09"><defs><style>.cls-1{fill:none;stroke:#f3eed9;stroke-linecap:round;stroke-miterlimit:10;stroke-width:2.61px;}.cls-2{fill:#f3eed9;}</style></defs><title>update</title><g id="Layer_2" data-name="Layer 2"><g id="admin"><path class="cls-1" d="M1.3,7.93V7.42A4.93,4.93,0,0,1,6.23,2.49h4.1"/><path class="cls-2" d="M14.56,1.5,12.23.16a1.14,1.14,0,0,0-1.72,1V3.84a1.14,1.14,0,0,0,1.72,1l2.33-1.34A1.15,1.15,0,0,0,14.56,1.5Z"/><path class="cls-1" d="M16.29,7v.5a4.93,4.93,0,0,1-4.93,4.93H7.26"/><path class="cls-2" d="M2.62,13.15,5.77,15a.87.87,0,0,0,1.31-.76V10.57a.87.87,0,0,0-1.31-.75L2.62,11.63A.87.87,0,0,0,2.62,13.15Z"/></g></g></svg>