<svg xmlns="http://www.w3.org/2000/svg" viewBox="0 0 9.79 16.29"><defs><style>.cls-1{fill:#f3eed9;stroke-width:0.66px;}.cls-1,.cls-2,.cls-3{stroke:#f3eed9;}.cls-1,.cls-2,.cls-3,.cls-4{stroke-miterlimit:10;}.cls-2,.cls-3{fill:none;}.cls-2{stroke-width:0.76px;}.cls-3{stroke-width:0.8px;}.cls-4{fill:#f9f9fa;stroke:#2f4858;stroke-linecap:round;stroke-width:0.57px;}</style></defs><title>waste</title><g id="Layer_2" data-name="Layer 2"><g id="admin"><path class="cls-1" d="M6.56,16h-3A1.87,1.87,0,0,1,1.7,14.32L.71,6H9.42l-1,8.33A1.86,1.86,0,0,1,6.56,16Z"/><path class="cls-2" d="M1.79,2.21H7.41A1.68,1.68,0,0,1,9.09,3.89v0a0,0,0,0,1,0,0H.1a0,0,0,0,1,0,0v0A1.68,1.68,0,0,1,1.79,2.21Z" transform="translate(-0.59 1.17) rotate(-13.66)"/><path class="cls-3" d="M4.46.42h0A1.61,1.61,0,0,1,6.07,2V2.1a0,0,0,0,1,0,0H2.88a0,0,0,0,1,0,0V2A1.58,1.58,0,0,1,4.46.42Z" transform="translate(-0.17 1.09) rotate(-13.66)"/><line class="cls-4" x1="2.84" y1="7.81" x2="3.33" y2="13.88"/><line class="cls-4" x1="5.06" y1="7.78" x2="5.06" y2="13.72"/><line class="cls-4" x1="7.3" y1="7.83" x2="6.95" y2="13.86"/></g></g></svg>